<svg xmlns="http://www.w3.org/2000/svg" xmlns:xlink="http://www.w3.org/1999/xlink" id="processonSvg1000" viewBox="292.0 174.0 518.0 244.0" width="518.0" height="244.0"><defs id="ProcessOnDefs1001"><marker id="ProcessOnMarker1007" markerUnits="userSpaceOnUse" orient="auto" markerWidth="16.23606797749979" markerHeight="10.550836550532098" viewBox="-1.0 -1.3763819204711736 16.23606797749979 10.550836550532098" refX="-1.0" refY="3.8990363547948754"><path id="ProcessOnPath1008" d="M12.0 3.8990363547948754L0.0 7.798072709589751V0.0Z" stroke="#323232" stroke-width="2.0" fill="#323232" transform="matrix(1.0,0.0,0.0,1.0,0.0,0.0)"/></marker><marker id="ProcessOnMarker1013" markerUnits="userSpaceOnUse" orient="auto" markerWidth="18.354101966249686" markerHeight="11.927218471003272" viewBox="-1.5 -2.0645728807067605 18.354101966249686 11.927218471003272" refX="-1.5" refY="3.8990363547948754"><path id="ProcessOnPath1014" d="M12.0 3.8990363547948754L0.0 7.798072709589751V0.0Z" stroke="#323232" stroke-width="3.0" fill="#323232" transform="matrix(1.0,0.0,0.0,1.0,0.0,0.0)"/></marker><marker id="ProcessOnMarker1025" markerUnits="userSpaceOnUse" orient="auto" markerWidth="14.118033988749895" markerHeight="9.174454630060925" viewBox="-0.5 -0.6881909602355868 14.118033988749895 9.174454630060925" refX="-0.5" refY="3.8990363547948754"><path id="ProcessOnPath1026" d="M12.0 3.8990363547948754L0.0 7.798072709589751V0.0Z" stroke="#000000" stroke-width="1.0" fill="#000000" transform="matrix(1.0,0.0,0.0,1.0,0.0,0.0)"/></marker><marker id="ProcessOnMarker1040" markerUnits="userSpaceOnUse" orient="auto" markerWidth="16.23606797749979" markerHeight="10.550836550532098" viewBox="-1.0 -1.3763819204711736 16.23606797749979 10.550836550532098" refX="-1.0" refY="3.8990363547948754"><path id="ProcessOnPath1041" d="M12.0 3.8990363547948754L0.0 7.798072709589751V0.0Z" stroke="#323232" stroke-width="2.0" fill="#323232" transform="matrix(1.0,0.0,0.0,1.0,0.0,0.0)"/></marker></defs><g id="ProcessOnG1002"><path id="ProcessOnPath1003" d="M292.0 174.0H810.0V418.0H292.0V174.0Z" fill="none"/><g id="ProcessOnG1004"><g id="ProcessOnG1005"><path id="ProcessOnPath1006" d="M319.0 319.0L774.7639320225002 319.0" stroke="#323232" stroke-width="2.0" stroke-dasharray="none" fill="none" marker-end="url(#ProcessOnMarker1007)"/></g><g id="ProcessOnG1009"><path id="ProcessOnPath1010" d="M394.0 318.0L482.0 246.0" stroke="#323232" stroke-width="3.0" stroke-dasharray="none" fill="none"/></g><g id="ProcessOnG1011"><path id="ProcessOnPath1012" d="M483.0 247.0L771.1458980337503 247.0" stroke="#323232" stroke-width="3.0" stroke-dasharray="none" fill="none" marker-end="url(#ProcessOnMarker1013)"/></g><g id="ProcessOnG1015" transform="matrix(1.0,0.0,0.0,1.0,429.0,326.0)" opacity="1.0"><path id="ProcessOnPath1016" d="M0.0 0.0L160.0 0.0L160.0 40.0L0.0 40.0Z" stroke="#323232" stroke-width="0.0" stroke-dasharray="none" opacity="1.0" fill="none"/><g id="ProcessOnG1017" transform="matrix(1.0,0.0,0.0,1.0,0.0,11.875)"><text id="ProcessOnText1018" fill="#000000" font-weight="normal" font-style="normal" text-decoration="blink" font-family="微软雅黑" text-anchor="middle" font-size="13" x="80.0" y="13.325">主干</text></g></g><g id="ProcessOnG1019" transform="matrix(1.0,0.0,0.0,1.0,489.0,199.0)" opacity="1.0"><path id="ProcessOnPath1020" d="M0.0 0.0L160.0 0.0L160.0 40.0L0.0 40.0Z" stroke="#323232" stroke-width="0.0" stroke-dasharray="none" opacity="1.0" fill="none"/><g id="ProcessOnG1021" transform="matrix(1.0,0.0,0.0,1.0,0.0,11.875)"><text id="ProcessOnText1022" fill="#000000" font-weight="normal" font-style="normal" text-decoration="blink" font-family="微软雅黑" text-anchor="middle" font-size="13" x="80.0" y="13.325">分支</text></g></g><g id="ProcessOnG1023"><path id="ProcessOnPath1024" d="M394.0 236.0L394.0 300.3819660112501" stroke="#000000" stroke-width="1.0" stroke-dasharray="none" fill="none" marker-end="url(#ProcessOnMarker1025)"/></g><g id="ProcessOnG1027" transform="matrix(1.0,0.0,0.0,1.0,312.0,194.0)" opacity="1.0"><path id="ProcessOnPath1028" d="M0.0 0.0L160.0 0.0L160.0 40.0L0.0 40.0Z" stroke="#323232" stroke-width="0.0" stroke-dasharray="none" opacity="1.0" fill="none"/><g id="ProcessOnG1029" transform="matrix(1.0,0.0,0.0,1.0,0.0,3.75)"><text id="ProcessOnText1030" fill="#000000" font-weight="normal" font-style="normal" text-decoration="blink" font-family="微软雅黑" text-anchor="middle" font-size="13" x="80.0" y="13.325">Start from copy</text><text id="ProcessOnText1031" fill="#000000" font-weight="normal" font-style="normal" text-decoration="blink" font-family="微软雅黑" text-anchor="middle" font-size="13" x="80.0" y="29.575">分支开始</text></g></g><g id="ProcessOnG1032"><path id="ProcessOnPath1033" d="M701.0 273.0L701.0 362.0" stroke="#323232" stroke-width="2.0" stroke-dasharray="10.0 4.0" fill="none"/></g><g id="ProcessOnG1034" transform="matrix(1.0,0.0,0.0,1.0,619.0,358.0)" opacity="1.0"><path id="ProcessOnPath1035" d="M0.0 0.0L160.0 0.0L160.0 40.0L0.0 40.0Z" stroke="#323232" stroke-width="0.0" stroke-dasharray="none" opacity="1.0" fill="none"/><g id="ProcessOnG1036" transform="matrix(1.0,0.0,0.0,1.0,0.0,11.875)"><text id="ProcessOnText1037" fill="#000000" font-weight="normal" font-style="normal" text-decoration="blink" font-family="微软雅黑" text-anchor="middle" font-size="13" x="80.0" y="13.325">Merge</text></g></g><g id="ProcessOnG1038"><path id="ProcessOnPath1039" d="M650.0 247.0L690.3458553722958 305.4603210496531" stroke="#323232" stroke-width="2.0" stroke-dasharray="none" fill="none" marker-end="url(#ProcessOnMarker1040)"/></g></g></g></svg>